{"accessors":[{"bufferView":0,"byteOffset":0,"componentType":5126,"count":108,"max":[11.3192090988159,1.5,7.58783054351807],"min":[-11.3192090988159,-1.5,-7.58783054351807],"normalized":false,"type":"VEC3"},{"bufferView":1,"byteOffset":0,"componentType":5126,"count":108,"max":[0.0,0.0,0.0000763009302318096,1.0],"min":[-1.0,-1.0,-1.0,-1.0],"normalized":false,"type":"VEC4"},{"bufferView":2,"byteOffset":0,"componentType":5126,"count":108,"max":[1.0,1.0,1.0],"min":[-1.0,-1.0,-1.0],"normalized":false,"type":"VEC3"},{"bufferView":3,"byteOffset":0,"componentType":5126,"count":108,"max":[1.0,1.0],"min":[0.0,0.0],"normalized":false,"type":"VEC2"},{"bufferView":4,"byteOffset":0,"componentType":5123,"count":108,"max":[107.0],"min":[0.0],"normalized":false,"type":"SCALAR"},{"bufferView":5,"byteOffset":0,"componentType":5126,"count":522,"max":[27.8661842346191,4.5,5.73199987411499],"min":[-35.8147811889648,-1.5,-32.0469207763672],"normalized":false,"type":"VEC3"},{"bufferView":6,"byteOffset":0,"componentType":5126,"count":522,"max":[0.999992430210114,0.0,0.0000152592547237873,1.0],"min":[-1.0,-1.0,-1.0,1.0],"normalized":false,"type":"VEC4"},{"bufferView":7,"byteOffset":0,"componentType":5126,"count":522,"max":[1.0,1.0,1.0],"min":[-1.0,-1.0,-1.0],"normalized":false,"type":"VEC3"},{"bufferView":8,"byteOffset":0,"componentType":5126,"count":522,"max":[1.0,1.0],"min":[0.0,0.0],"normalized":false,"type":"VEC2"},{"bufferView":9,"byteOffset":0,"componentType":5123,"count":522,"max":[521.0],"min":[0.0],"normalized":false,"type":"SCALAR"},{"bufferView":10,"byteOffset":0,"componentType":5126,"count":36,"max":[6.54150009155273,1.5,5.26149988174438],"min":[1.32799339294434,-1.5,-5.26149988174438],"normalized":false,"type":"VEC3"},{"bufferView":11,"byteOffset":0,"componentType":5126,"count":36,"max":[0.0,0.0,0.0000763009302318096,1.0],"min":[-1.0,-1.0,-1.0,-1.0],"normalized":false,"type":"VEC4"},{"bufferView":12,"byteOffset":0,"componentType":5126,"count":36,"max":[1.0,1.0,1.0],"min":[-1.0,-1.0,-1.0],"normalized":false,"type":"VEC3"},{"bufferView":13,"byteOffset":0,"componentType":5126,"count":36,"max":[1.0,1.0],"min":[0.0,0.0],"normalized":false,"type":"VEC2"},{"bufferView":14,"byteOffset":0,"componentType":5123,"count":36,"max":[35.0],"min":[0.0],"normalized":false,"type":"SCALAR"},{"bufferView":15,"byteOffset":0,"componentType":5126,"count":96,"max":[13.335000038147,1.5,9.62199974060059],"min":[-13.335000038147,-1.5,-9.62199974060059],"normalized":false,"type":"VEC3"},{"bufferView":16,"byteOffset":0,"componentType":5126,"count":96,"max":[0.0,0.0,0.0000763009302318096,1.0],"min":[-1.0,-1.0,-1.0,-1.0],"normalized":false,"type":"VEC4"},{"bufferView":17,"byteOffset":0,"componentType":5126,"count":96,"max":[1.0,1.0,1.0],"min":[-1.0,-1.0,-1.0],"normalized":false,"type":"VEC3"},{"bufferView":18,"byteOffset":0,"componentType":5126,"count":96,"max":[1.0,1.0],"min":[0.0,0.0],"normalized":false,"type":"VEC2"},{"bufferView":19,"byteOffset":0,"componentType":5123,"count":96,"max":[95.0],"min":[0.0],"normalized":false,"type":"SCALAR"},{"bufferView":20,"byteOffset":0,"componentType":5126,"count":36,"max":[4.82649993896484,1.5,-1.89843654632568],"min":[-4.82649993896484,-1.5,-15.28600025177],"normalized":false,"type":"VEC3"},{"bufferView":21,"byteOffset":0,"componentType":5126,"count":36,"max":[0.0,0.0,0.0000763009302318096,1.0],"min":[-1.0,-1.0,-1.0,-1.0],"normalized":false,"type":"VEC4"},{"bufferView":22,"byteOffset":0,"componentType":5126,"count":36,"max":[1.0,1.0,1.0],"min":[-1.0,-1.0,-1.0],"normalized":false,"type":"VEC3"},{"bufferView":23,"byteOffset":0,"componentType":5126,"count":36,"max":[1.0,1.0],"min":[0.0,0.0],"normalized":false,"type":"VEC2"},{"bufferView":24,"byteOffset":0,"componentType":5123,"count":36,"max":[35.0],"min":[0.0],"normalized":false,"type":"SCALAR"}],"asset":{"generator":"Godot Engine v4.4.beta4.mono.official@93d270693079ea7802c9e1334a2e0ecd8529eeed","version":"2.0"},"bufferViews":[{"buffer":0,"byteLength":1296,"byteOffset":0,"byteStride":12,"target":34962},{"buffer":0,"byteLength":1728,"byteOffset":1296,"byteStride":16,"target":34962},{"buffer":0,"byteLength":1296,"byteOffset":3024,"byteStride":12,"target":34962},{"buffer":0,"byteLength":864,"byteOffset":4320,"byteStride":8,"target":34962},{"buffer":0,"byteLength":216,"byteOffset":5184,"target":34963},{"buffer":0,"byteLength":6264,"byteOffset":5400,"byteStride":12,"target":34962},{"buffer":0,"byteLength":8352,"byteOffset":11664,"byteStride":16,"target":34962},{"buffer":0,"byteLength":6264,"byteOffset":20016,"byteStride":12,"target":34962},{"buffer":0,"byteLength":4176,"byteOffset":26280,"byteStride":8,"target":34962},{"buffer":0,"byteLength":1044,"byteOffset":30456,"target":34963},{"buffer":0,"byteLength":432,"byteOffset":31500,"byteStride":12,"target":34962},{"buffer":0,"byteLength":576,"byteOffset":31932,"byteStride":16,"target":34962},{"buffer":0,"byteLength":432,"byteOffset":32508,"byteStride":12,"target":34962},{"buffer":0,"byteLength":288,"byteOffset":32940,"byteStride":8,"target":34962},{"buffer":0,"byteLength":72,"byteOffset":33228,"target":34963},{"buffer":0,"byteLength":1152,"byteOffset":33300,"byteStride":12,"target":34962},{"buffer":0,"byteLength":1536,"byteOffset":34452,"byteStride":16,"target":34962},{"buffer":0,"byteLength":1152,"byteOffset":35988,"byteStride":12,"target":34962},{"buffer":0,"byteLength":768,"byteOffset":37140,"byteStride":8,"target":34962},{"buffer":0,"byteLength":192,"byteOffset":37908,"target":34963},{"buffer":0,"byteLength":432,"byteOffset":38100,"byteStride":12,"target":34962},{"buffer":0,"byteLength":576,"byteOffset":38532,"byteStride":16,"target":34962},{"buffer":0,"byteLength":432,"byteOffset":39108,"byteStride":12,"target":34962},{"buffer":0,"byteLength":288,"byteOffset":39540,"byteStride":8,"target":34962},{"buffer":0,"byteLength":72,"byteOffset":39828,"target":34963}],"buffers":[{"byteLength":39900,"uri":"main_level0.bin"}],"extensions":{"KHR_lights_punctual":{"lights":[{"type":"directional"}]}},"extensionsUsed":["GODOT_single_root","KHR_lights_punctual"],"images":[{"uri":"textures%2F_albedo000.png"}],"materials":[{"extensions":{},"pbrMetallicRoughness":{"baseColorFactor":[0.0318958945572376,0.0318958945572376,0.0318958945572376,1.0],"baseColorTexture":{"index":0},"metallicFactor":0.0,"roughnessFactor":1.0}}],"meshes":[{"extras":{"targetNames":[]},"primitives":[{"attributes":{"NORMAL":2,"POSITION":0,"TANGENT":1,"TEXCOORD_0":3},"indices":4,"material":0,"mode":4}]},{"extras":{"targetNames":[]},"primitives":[{"attributes":{"NORMAL":7,"POSITION":5,"TANGENT":6,"TEXCOORD_0":8},"indices":9,"material":0,"mode":4}]},{"extras":{"targetNames":[]},"primitives":[{"attributes":{"NORMAL":12,"POSITION":10,"TANGENT":11,"TEXCOORD_0":13},"indices":14,"material":0,"mode":4}]},{"extras":{"targetNames":[]},"primitives":[{"attributes":{"NORMAL":17,"POSITION":15,"TANGENT":16,"TEXCOORD_0":18},"indices":19,"material":0,"mode":4}]},{"extras":{"targetNames":[]},"primitives":[{"attributes":{"NORMAL":22,"POSITION":20,"TANGENT":21,"TEXCOORD_0":23},"indices":24,"material":0,"mode":4}]}],"nodes":[{"children":[1,2,3,6,17,18,20,22],"name":"MainLevel"},{"name":"WorldEnvironment"},{"extensions":{"KHR_lights_punctual":{"light":0}},"name":"DirectionalLight3D","rotation":[-0.129410728812218,0.836515307426453,0.482963681221008,0.22414530813694]},{"children":[4,5],"mesh":0,"name":"Overhang2","translation":[-20.2575607299805,1.5,10.906795501709]},{"name":"Corridor6","translation":[-5.34193229675293,-0.25,-5.08657550811768]},{"name":"Overhang22","translation":[2.48486137390137,0.0,2.28580474853516]},{"children":[7],"mesh":1,"name":"Room2","translation":[4.0,1.5,13.0]},{"children":[8,9,10,11,12,13,14,15,16],"name":"CSGCombiner3D"},{"name":"Room22","translation":[-24.405029296875,1.5,-2.10106468200684]},{"name":"Corridor","translation":[-9.67700004577637,-0.25,0.279000014066696]},{"name":"Corridor2","translation":[-29.5414581298828,-0.25,-11.2388067245483]},{"name":"Corridor3","translation":[-11.3928031921387,2.75,-9.27853202819824]},{"name":"Corridor4","rotation":[0.0,-0.705710768699646,0.0,0.708500027656555],"translation":[-19.3148555755615,2.75,-17.5337333679199]},{"name":"Corridor5","rotation":[0.0,-0.705710768699646,0.0,0.708500027656555],"translation":[14.1593437194824,2.75,-23.4636268615723]},{"name":"Room3","translation":[-29.2733726501465,1.5,-18.1270351409912]},{"name":"Room4","translation":[-2.88087272644043,1.5,-22.4250907897949]},{"name":"Room5","translation":[23.0398864746094,1.5,-13.7513208389282]},{"name":"Sprite3D","scale":[2.40000009536743,2.40000009536743,2.40000009536743],"translation":[-0.27344536781311,0.100000001490116,-0.273450136184692]},{"children":[19],"mesh":2,"name":"Overhang24","translation":[-25.2730007171631,1.5,-5.1269998550415]},{"name":"Overhang3","translation":[-5.2135066986084,0.0,0.0]},{"children":[21],"mesh":3,"name":"Overhang33","translation":[1.11899995803833,1.5,-9.42500019073486]},{"name":"Overhang4","translation":[-0.137064933776855,0.0,-0.113970756530762]},{"children":[23],"mesh":4,"name":"Overhang43","translation":[27.0400009155273,1.5,-0.750999987125397]},{"name":"Overhang5","translation":[0.0,0.0,6.69378185272217]}],"samplers":[{"magFilter":9729,"minFilter":9987,"wrapS":10497,"wrapT":10497}],"scene":0,"scenes":[{"nodes":[0]}],"textures":[{"sampler":0,"source":0}]}